# xmcd
#
# Track frame offsets: 
#        150
#        123739
#        140691
#        158768
#        178795
#        192372
#        207224
#        236326
#
# Disc length: 3157 seconds
#
# Revision: 0
# Processed by: cddbd v1.5.2PL0 Copyright (c) Steve Scherf et al.
# Submitted via: ExactAudioCopy v0.95b4
#
DISCID=710c5308
DTITLE=Various Artist - Redneck Rampage
DYEAR=1998
DGENRE=Country
TTITLE0=Redneck Rampage Data Track - Do Not Play This
TTITLE1=UFOs Big Rigs and BBQ - Mojo Nixon
TTITLE2=Nuture My Pig - The Reverend Horton Heat
TTITLE3=Trash Can - Cement Pond
TTITLE4=Wiggle Stick - The Reverend Horton Heat
TTITLE5=Vixen - Cement Pond
TTITLE6=You Can't Kill Me - Mojo Nixon
TTITLE7=DATA
EXTD=
EXTT0=
EXTT1=
EXTT2=
EXTT3=
EXTT4=
EXTT5=
EXTT6=
EXTT7=
PLAYORDER=
